<?xml version="1.0" encoding="UTF-8"?>
<svg id="Layer_1" xmlns="http://www.w3.org/2000/svg" version="1.1" viewBox="0 0 1366 498.7">
  <!-- Generator: Adobe Illustrator 30.8.2, SVG Export Plug-In . SVG Version: 2.1.4 Build 7)  -->
  <defs>
    <style>
      .st0 {
        fill: #231f20;
      }

      .st1 {
        fill: #f33;
      }
    </style>
  </defs>
  <g>
    <path class="st0" d="M549.8,295.9v2.2c1-.6,2-1.4,2.8-2.2h-2.8ZM540.6,344.1c-3.8-6.1-9.9-11.1-18.1-15.1-8.3-4-19.1-6.9-32.5-8.8l-17.9-2.7c-3.2,4-6.4,7.7-9.3,11.2,0,.1-.2.2-.3.3-4.2,4.7-8.6,9.4-13.3,14.2l31.2,4.6c11.9,1.9,20.2,4.3,24.9,7.4,4.8,3.1,7.1,7.6,7.1,13.7s-1.1,7-3.3,9.8c-2.2,2.8-5.4,5.1-9.6,7-4.2,1.9-9.5,3.3-15.8,4.3-6.3,1-13.6,1.5-21.9,1.5-12,0-22.1-1.1-30.3-3.4-8.2-2.3-14.9-5.6-20-10.1,0,0,0,0-.1-.1-7.6,6.4-15.5,12.9-23.9,19.4.5.4.9.8,1.4,1.1,8.5,6.6,18.8,11.4,30.9,14.5,12.1,3.1,25.7,4.7,40.8,4.7s32.4-1.9,45.2-5.7c12.8-3.8,22.7-9.6,29.8-17.2,7.1-7.6,10.6-17.2,10.6-28.6s-1.9-16.1-5.7-22.2Z"/>
    <path class="st0" d="M543.3,287.3l-28.8,10.3c-3.3-7-7.5-12.3-12.8-15.9-1-.7-2-1.3-3.1-1.9-3.5-2-7.5-3.5-12-4.6-1.4-.3-2.8-.6-4.2-.9-2.9-.5-6-.9-9.4-1.2-3.4-.3-7.1-.6-10.9-.7-2.1,0-4.3-.1-6.6-.1s-6,0-8.7.2c-6.7.3-12.5,1.1-17.4,2.3-3.1.7-5.8,1.7-8.1,2.7-7.7,3.5-11.6,8.4-11.6,14.6s.3,3.8.9,5.5c-.1.2-.3.3-.4.5-.1.2-.3.4-.4.5-5.4,7-13.5,14.5-21.2,21.9-.6.5-1.1,1.1-1.7,1.6-1.9-1.8-3.5-3.8-4.9-5.9-4-6.1-6-13-6-20.8s3.4-20,10.2-27.4c6.8-7.3,16.4-12.8,28.8-16.5,9.8-2.9,20.8-4.6,33.1-5.2,3.3-.2,6.6-.3,10.1-.3s2.8,0,4.2,0c4.7,0,9.2.3,13.6.7,3.3.3,6.5.7,9.7,1.1,3.1.5,6.1,1,9,1.6,1.2.3,2.4.5,3.6.9,4.2,1.1,8.3,2.4,12.1,4.1,4.7,2,9.1,4.5,13.2,7.4,8.3,5.9,14.9,14.3,19.9,25.3Z"/>
    <path class="st0" d="M546.3,366.4c0,11.4-3.5,20.9-10.6,28.6-7.1,7.6-17,13.4-29.8,17.2-12.8,3.8-27.8,5.7-45.2,5.7s-28.7-1.6-40.8-4.7c-12.1-3.1-22.4-7.9-30.9-14.5-.5-.4-1-.8-1.4-1.1,8.4-6.5,16.3-13,23.9-19.4,0,0,0,0,.1.1,5.2,4.4,11.8,7.8,20,10.1,8.2,2.3,18.3,3.4,30.3,3.4s15.6-.5,21.9-1.5c6.3-1,11.6-2.5,15.8-4.3,4.2-1.9,7.4-4.2,9.6-7,2.2-2.8,3.3-6.1,3.3-9.8,0-6.1-2.4-10.6-7.1-13.7-4.8-3-13.1-5.5-24.9-7.4l-31.2-4.6c4.7-4.8,9.1-9.5,13.3-14.2,0,0,.2-.2.3-.3,3-3.5,6.1-7.3,9.3-11.2l17.9,2.7c13.4,1.9,24.3,4.8,32.5,8.8,8.3,4,14.3,9,18.1,15.1,3.8,6.1,5.7,13.5,5.7,22.2Z"/>
    <path class="st0" d="M667.3,390.9v22.2c-6.2,1.6-12.7,2.7-19.3,3.5-6.6.8-12.8,1.2-18.4,1.2-10.5,0-19.6-1.2-27.4-3.7-7.8-2.5-13.9-6.5-18.3-12.1-4.4-5.5-6.6-12.9-6.6-22.1v-61.5h-27.6v-22.5h28.3l4.2-36.5h28.3v36.5h54.8v22.5h-54.8v56.6c0,5.3,1.1,9.4,3.3,12.2,2.2,2.8,5.2,4.7,9.1,5.7,3.9,1,8.3,1.5,13.1,1.5s9.8-.3,15.3-1.1c5.5-.7,10.8-1.5,15.8-2.5Z"/>
    <path class="st0" d="M780.3,361.5c0,8.9-1.6,15.7-4.8,20.4-3.2,4.7-7.5,7.9-12.9,9.7-5.4,1.8-11.5,2.7-18.4,2.7s-12.1-.9-17.1-2.7c-5-1.8-8.9-5.1-11.7-9.9-2.8-4.8-4.2-11.9-4.2-21.3v-64.3h-33.2v72.8c0,11.4,2.3,20.7,6.9,28,4.6,7.3,11.1,12.6,19.5,16,8.4,3.4,18.3,5.1,29.7,5.1s18.6-1.2,26.7-3.6c7.7-2.3,14.3-6,19.7-11.2v12h33v-119.1h-33.2v65.5Z"/>
    <path class="st0" d="M951.8,310.3c-.5-.4-.9-.9-1.4-1.3-6.1-5.1-13.3-9.1-21.5-11.8-8.3-2.7-17.1-4.1-26.4-4.1s-17.1,1.2-25.6,3.6c-8.5,2.4-16.1,6.1-22.9,11.1-6.8,5-12.2,11.4-16.4,19.3-4.1,7.9-6.2,17.3-6.2,28.2s2.1,20.1,6.3,28c4.2,7.9,9.7,14.4,16.6,19.5,6.9,5.1,14.5,8.9,22.9,11.3,8.4,2.4,16.8,3.6,25.3,3.6s18.2-1.3,26.4-3.9c8.3-2.6,15.5-6.6,21.6-12.1.5-.5,1-1,1.5-1.4v14.6h33v-166.1h-33.2v61.4ZM945.3,379c-4.4,5.5-9.9,9.4-16.6,11.9-6.7,2.5-13.7,3.7-20.8,3.7s-14.7-1.4-21.3-4.2c-6.6-2.8-11.9-7-15.9-12.6-4.1-5.6-6.1-12.5-6.1-20.6v-3.5c0-8.4,2-15.4,6.1-20.8,4.1-5.5,9.4-9.6,15.9-12.4,6.6-2.8,13.6-4.2,21.3-4.2s14.1,1.2,20.8,3.6c6.7,2.4,12.2,6.3,16.6,11.7,4.4,5.4,6.6,12.6,6.6,21.6v4.2c0,8.9-2.2,16.1-6.6,21.5Z"/>
    <rect class="st0" x="1009.2" y="295.9" width="33.2" height="119.1"/>
    <rect class="st0" x="1009.4" y="247.7" width="33" height="26.9"/>
    <path class="st0" d="M1176.2,300c-11.7-4.6-24.6-6.9-38.8-6.9s-27.2,2.3-39,6.9c-11.8,4.6-21.1,11.5-28.1,20.8-6.9,9.3-10.4,20.8-10.4,34.5s2.1,19.3,6.2,27.1c4.1,7.8,9.8,14.3,17.1,19.5,7.3,5.2,15.5,9.2,24.8,11.8,9.3,2.7,19.1,4,29.4,4s20.1-1.3,29.4-4c9.3-2.7,17.5-6.6,24.7-11.8,7.2-5.2,12.8-11.7,17-19.5,4.1-7.8,6.2-16.8,6.2-27.1s-3.5-25.2-10.4-34.5c-6.9-9.3-16.3-16.2-28-20.8ZM1181.4,357.2c0,8-1.9,14.7-5.6,20.4-3.7,5.6-8.9,9.9-15.4,12.8-6.6,2.9-14.2,4.3-22.9,4.3s-16.2-1.4-22.8-4.3c-6.6-2.9-11.8-7.1-15.6-12.8-3.7-5.6-5.6-12.4-5.6-20.4v-3.5c0-8.1,1.9-14.9,5.6-20.5,3.7-5.5,8.9-9.7,15.6-12.6,6.6-2.9,14.2-4.3,22.8-4.3s16.4,1.4,22.9,4.3c6.6,2.9,11.7,7.1,15.4,12.6,3.7,5.5,5.6,12.4,5.6,20.5v3.5Z"/>
    <path class="st0" d="M1360.6,361c-3.6-4.4-8.7-7.8-15.4-10.3-6.7-2.5-14.8-4.3-24.3-5.4l-41.7-5.6c-8-.9-13.5-2.3-16.5-4.2s-4.6-4.4-4.6-7.5,3.1-7.2,9.2-9.4c6.2-2.2,14.9-3.3,26.3-3.3s22,1.4,29.1,4.2c7.1,2.8,12.2,6.5,15.3,11l25.7-9.8c-4.1-6.6-9.5-11.9-16.3-15.9-6.8-4.1-14.7-7-23.8-8.9-9-1.9-19.2-2.8-30.4-2.8s-23.7,1.3-33.6,3.9c-9.9,2.6-17.7,6.6-23.5,12.2-5.8,5.5-8.7,12.8-8.7,21.6s1.8,12.1,5.3,16.5,8.7,8,15.4,10.6c6.8,2.7,14.9,4.6,24.5,5.8l43.8,5.6c6.1.8,10.8,2.1,14,3.9,3.3,1.8,4.9,4.6,4.9,8.5s-3.6,8.5-10.8,10.6c-7.2,2.1-16.5,3.2-28.1,3.2s-17.1-.8-23.3-2.5c-6.2-1.6-11.1-3.7-14.9-6.3-3.7-2.6-6.8-5.3-9.1-8.3l-26.4,11.9c4.2,6.2,9.8,11.4,16.8,15.4,7,4.1,15.2,7.1,24.6,9,9.4,1.9,19.7,2.9,30.9,2.9s25.9-1.3,36.5-4c10.6-2.7,19-6.9,25-12.6,6.1-5.8,9.1-13.3,9.1-22.7s-1.8-13.2-5.4-17.5Z"/>
  </g>
  <g>
    <path class="st1" d="M201.4,320.2s0,0,0,0c0,0,0,0,0,0,0,0,0,0,0,0Z"/>
    <path class="st1" d="M413.4,17.4c-.3-.9-.4-1.8-.2-2.7,1-5.3-3.8-10-8.3-12.4-11.9-9.4-43.6,11.6-57.1,16.8-.2,0-.4.2-.6.2-23.3,12.2-50.7,22.2-74.9,32.2-65.3,25.5-131,50.8-197.3,73.2-21.6,8.1-47.7,18.3-67.9,30.6-.2.1-.4.3-.6.4-12.7,9.7-5.8,31.3,11.8,28,19.6-3.9,40.2-12,58.6-19.4,19.4-8.6,42.1-18.2,61.2-28.1.1,0,.2-.1.3-.2,9.5-5.8,8.8-2.5,18.9-7.5,5.6-2.6,12.4-5.3,18.1-7.8,17.6-7.4,36.4-16.1,54.6-23.3,3.6-1.5,7.7,1,8,4.9,7,92.6-40.6,221.7-115.4,278.2-2,1.5-4.7,1.6-6.8.1-15-10.4-25.7-36.9-30.7-53-6.5-18.5-9.8-41.6-5.5-61.5,0-.3,0-.6.1-.9.6-15.4,14.7-24.8,27.1-31.6.2,0,.3-.2.4-.3,14.1-9.8,30.8-15.5,46.4-22.5,10.5-4.5,20-9.8,30.2-14.2,9.7-3.8,21.9-10,29-17.6,3.4-3.2,2.5-10.9.5-15.1-.3-.6-.7-1.2-1.3-1.7-6.4-5.7-15-5-22.8-2.8-.1,0-.3,0-.4,0-2.7.5-21.3,4.7-24.4,5.3-.3,0-.6.2-.9.3-17.1,6.7-35.6,11.2-51.5,20.1-.7.4-1.5.6-2.3.7-10.8,1.3-19.8,8.9-28.1,15.3-.7.5-1.4.8-2.2,1-16.3,4.1-32,26-36.3,42.3-4.4,19.5-6.2,40.4-2.8,60.4,0,.1,0,.3,0,.4,1.2,18.4,8.3,36.1,16.4,52.5,0,.2.2.3.3.5,7.7,12.5,15.2,26.1,26.7,35.6.3.3.6.5.8.9,3,3.8,8.8,9,17.7,11.2,1.5.4,2.8,1.3,3.6,2.6,3.5,5.7,11.7,8,18.2,7.7.3,0,.5,0,.7,0,10.4-1.6,25.2-15.2,33.3-22.4,13-11.3,25.5-27.6,36.2-41,5.6-7.7,11.6-17.7,17.3-25.7,0-.1.1-.2.2-.3,19.6-31.6,36.8-68.1,46.5-103.9,0-.2.1-.3.2-.5.2-.4.4-.9.5-1.3h0c1.6-4.2,3-8.6,4.1-12.9,3.1-11.5,5-23.3,7.5-34.7,1.3-6.9,1.3-6.3,1.2-14,0-.2,0-.4,0-.5.3-4.8,1.4-9.9,1.6-14.6,0-.7,0-1.4,0-2s0-.3,0-.4c.4-3.7.3-7.2.2-10.7h0c-.2-4-.6-8-.8-12.2,0-.3,0-.7-.1-1-1.8-8,.6-7.7-1.5-17.2l-3.3-14.3c-.7-2.9.9-5.9,3.8-7,22.5-8.6,45.2-18.3,67.9-26.6,9.5-4.1,22.2-4.9,30.9-10.3.8-.5,1.6-.8,2.5-.9,6.6-.8,12.5-3.9,18.7-6.1.2,0,.4-.2.6-.2,12-6,9.2-1.4,14.9-6.9,2.4-2.3,7.3-7.4,6-11.5ZM201.3,320.2s0,0,0,0c0,0,0,0,0,0,0,0,0,0,0,0Z"/>
    <path class="st1" d="M479.3,286.7c-4,5.9-8.3,11.6-12.7,17.2-3.1,3.9-6.2,7.7-9.3,11.4-1.5,1.8-2.9,3.5-4.4,5.3-6.2,6.9-12.7,13.7-19.5,20.3-3.7,3.7-7.5,7.3-11.4,10.8-3.1,2.9-6.3,5.7-9.4,8.5-3.2,2.8-6.4,5.6-9.7,8.4-8,6.8-16.2,13.4-24.4,19.8-3.4,2.6-6.7,5.2-10.1,7.7-3.5,2.6-6.9,5.2-10.4,7.7-46,33.7-95.9,62.1-149.5,80.7-9.3,3.4-24.3,8.2-33.8,10.5-8.9,2.1-20.1,7.1-27.6-.3-4.4-3.1-8.4-7.7-6.2-13.7,1.9-5.4-1.4-8.9,9.3-12.8.2,0,.3-.1.5-.2,15.2-4.3,26.6-6.4,40.2-10.9,49.5-16.5,95.4-43.4,138.9-71.7,18.5-12.9,36.3-27.1,53.3-41.8.1-.1.3-.2.4-.4,1.4-1.5,2.9-3,4.4-4.5,3-3,6.3-6,9.6-9.1,8-7.5,16.2-15.2,22.2-22.9.1-.1.2-.3.3-.4,2.7-3.2,5.5-6.4,8.3-9.7,2.9-3.4,5.7-6.9,8.5-10.4,4.3-.7,9.8-1.2,17-1.3.7,0,1.3,0,2,0,3.2,0,6.3,0,9.3.2,5.3.3,10.2.7,14.5,1.4Z"/>
    <path class="st1" d="M501.6,238.2c-1.5-.4-2.9-.7-4.4-1.1-2.6-.5-5.3-1-8-1.5-2.8-.4-5.7-.8-8.6-1.1-4.2-.5-8.6-.8-13.1-1,1.1-3.2,2.1-6.5,3-9.8,0-.4.2-.8.2-1.1.1-1.9.4-6.6.4-8.6,0-.4,0-.8-.1-1.1-3.6-19.1-29.2-18.4-44.1-17.2-5.2.6-12,1-17.2,1.5-.2,0-.5,0-.7.1-13.6,3-29.9,6.8-43.2,11.2-13.1,4.5-29.3,11-41.7,15-.1,0-.2,0-.3.1-14.3,5.6-11.5,5.3-23.8,12.7-2.5,1.5-5.3.6-7.8.9-.4,0-.7.1-1,.2-9,2.9-10,1.4-13.3-5.8-.5-1-1.2-1.9-2.2-2.5-2.3-1.5-3.3-3.4-3.6-5.5h0c-.4-3.2,1.1-6.9,3.2-10.2.5-.8,1.1-1.7,1.7-2.4,2.3-4.5,7.5-5.3,11.3-8.3.2-.2.4-.3.7-.5,4.1-2.3,11.7-6.9,15.5-9.3,22.1-14.7,45.4-30.1,63.9-49.4,3.8-3.9.5-10.4-4.9-9.7-11.9,1.6-25.1,5.1-34.8,7.7-12.2,2.7-25.2,10.1-37.6,5.9-1.4-.5-2.5-1.5-3.2-2.8-.5-1-.9-1.8-1.3-2.4-1.6-2.9-1.7-3.9.2-8.9,0,0,0-.1,0-.2,3.2-8.3,2-5.2,10.9-11.2,3.4-2.3,7.5-3.5,11.4-5,17-6.9,34.6-12.7,52.7-15.8,23-5.3,55.4.8,52.1,30.5-1.3,8.8-6.1,16.4-11.8,23.5-3.3,4.1.2,10.1,5.4,9.3,10-1.5,20.2-2.4,30-1.5.1,0,.2,0,.3,0,17.1.2,34.6,5.7,48.4,15.8.4.3.7.5,1,.9,14.4,16.1,18.7,37.9,14.4,58.4Z"/>
  </g>
</svg>