<?xml version="1.0" encoding="UTF-8"?>
<svg id="Layer_2" data-name="Layer 2" xmlns="http://www.w3.org/2000/svg" viewBox="0 0 394.75 128.79">
  <defs>
    <style>
      .cls-1 {
        fill: #231f20;
      }

      .cls-2 {
        fill: #ef3c2f;
      }
    </style>
  </defs>
  <g id="Layer_1-2" data-name="Layer 1">
    <path class="cls-1" d="M123.74,96.83c0-1.18-.59-2.08-1.77-2.7-1.18-.62-3.37-1.16-6.55-1.62l-4.93-.77c-6.37-.97-10.92-2.43-13.64-4.35-2.73-1.93-4.09-4.71-4.09-8.36,0-3.85,1.84-6.86,5.51-9.02,3.67-2.16,8.77-3.24,15.3-3.24s11.82,1,15.11,3.01c3.29,2,5.42,4.91,6.4,8.71l-11.79,1.16c-1.03-3.24-4.27-4.86-9.71-4.86-2.83,0-5.01.37-6.55,1.12-1.54.75-2.31,1.76-2.31,3.04,0,1.13.57,2,1.7,2.62,1.13.62,3.21,1.16,6.24,1.62l5.32.77c4.57.67,8.16,1.5,10.75,2.51,2.59,1,4.44,2.3,5.55,3.89,1.1,1.59,1.66,3.62,1.66,6.09,0,8.69-7.12,13.03-21.35,13.03-4.11,0-7.82-.42-11.14-1.27-3.31-.85-6.01-2.26-8.09-4.24-2.08-1.98-3.33-4.66-3.74-8.05h12.03c.56,1.9,1.76,3.26,3.58,4.08,1.82.82,4.23,1.23,7.21,1.23s5.34-.37,6.94-1.12c1.59-.74,2.39-1.84,2.39-3.28"/>
    <path class="cls-1" d="M144.48,94.28v-16.96h-7.79v-9.33h7.79v-10.71h12.8v10.71h12.87v9.33h-12.87v16.42c0,2,.49,3.44,1.46,4.32.98.87,2.49,1.31,4.55,1.31s4.16-.36,6.48-1.08l1.7,8.94c-1.9.62-3.76,1.07-5.59,1.35-1.83.28-3.87.42-6.13.42-5.4,0-9.29-1.17-11.68-3.51-2.39-2.34-3.58-6.08-3.58-11.22"/>
    <path class="cls-1" d="M174.54,94.28v-26.28h12.8v23.89c0,5.14,2.6,7.71,7.79,7.71,3.03,0,5.75-1.08,8.17-3.24,2-1.75,3.01-3.88,3.01-6.4v-21.97h12.87v40.24h-12.56v-6.24c-2.11,2.36-4.47,4.2-7.09,5.51-2.62,1.31-5.65,1.97-9.1,1.97-4.98,0-8.88-1.32-11.68-3.97-2.8-2.65-4.2-6.39-4.2-11.22"/>
    <path class="cls-1" d="M224.49,88.58c0-4.27.85-8.03,2.54-11.29,1.7-3.26,4.11-5.83,7.25-7.71,3.13-1.88,6.86-2.81,11.18-2.81,6.42,0,11.36,2.11,14.8,6.32v-19.89h12.8v55.04h-12.56v-5.94c-1.85,2.36-4.16,4.15-6.94,5.36-2.77,1.21-5.88,1.81-9.33,1.81-3.96,0-7.41-.87-10.37-2.62-2.96-1.75-5.26-4.19-6.9-7.32-1.65-3.13-2.47-6.78-2.47-10.95M237.59,88.27c0,3.7.95,6.55,2.85,8.56,1.9,2,4.65,3.01,8.25,3.01,2.26,0,4.26-.46,6.01-1.39,1.75-.92,3.12-2.2,4.12-3.82,1-1.62,1.5-3.43,1.5-5.43v-1.93c0-3.24-1.01-5.86-3.05-7.86-2.03-2-4.79-3.01-8.29-3.01-3.75,0-6.59,1.02-8.52,3.04-1.93,2.03-2.89,4.97-2.89,8.83"/>
    <path class="cls-1" d="M280.37,52.66h13.03v9.25h-13.03v-9.25ZM280.45,68h12.8v40.24h-12.8v-40.24Z"/>
    <path class="cls-1" d="M298.64,88.27c0-4.47,1-8.31,3.01-11.52,2-3.21,4.87-5.68,8.6-7.4,3.73-1.72,8.11-2.58,13.14-2.58,7.66,0,13.6,1.85,17.84,5.55,4.24,3.7,6.36,8.92,6.36,15.65,0,4.42-1,8.23-3.01,11.45-2,3.21-4.86,5.69-8.56,7.44-3.7,1.75-8.09,2.62-13.18,2.62-7.61,0-13.54-1.86-17.81-5.59-4.27-3.73-6.4-8.93-6.4-15.61M311.74,88.12c0,3.75.98,6.64,2.93,8.67,1.95,2.03,4.75,3.04,8.4,3.04s6.54-1.01,8.52-3.04c1.98-2.03,2.97-4.92,2.97-8.67s-.99-6.72-2.97-8.75c-1.98-2.03-4.79-3.05-8.44-3.05s-6.46,1.02-8.44,3.05c-1.98,2.03-2.97,4.95-2.97,8.75"/>
    <path class="cls-1" d="M382.43,96.83c0-1.18-.59-2.08-1.77-2.7-1.18-.62-3.37-1.16-6.55-1.62l-4.93-.77c-6.37-.97-10.92-2.43-13.64-4.35-2.73-1.93-4.09-4.71-4.09-8.36,0-3.85,1.84-6.86,5.51-9.02,3.67-2.16,8.78-3.24,15.3-3.24s11.82,1,15.11,3.01c3.29,2,5.42,4.91,6.4,8.71l-11.79,1.16c-1.03-3.24-4.27-4.86-9.71-4.86-2.83,0-5.01.37-6.55,1.12-1.54.75-2.31,1.76-2.31,3.04,0,1.13.56,2,1.7,2.62,1.13.62,3.21,1.16,6.24,1.62l5.32.77c4.57.67,8.16,1.5,10.75,2.51,2.59,1,4.44,2.3,5.55,3.89,1.11,1.59,1.66,3.62,1.66,6.09,0,8.69-7.12,13.03-21.35,13.03-4.11,0-7.82-.42-11.14-1.27-3.31-.85-6.01-2.26-8.09-4.24-2.08-1.98-3.33-4.66-3.74-8.05h12.03c.56,1.9,1.76,3.26,3.58,4.08,1.82.82,4.23,1.23,7.21,1.23s5.35-.37,6.94-1.12c1.59-.74,2.39-1.84,2.39-3.28"/>
    <path class="cls-2" d="M39.34,54.53c-4.01,1.81-8.28,3.28-11.9,5.81-.04.02-.07.05-.11.07-3.18,1.75-6.78,4.18-6.93,8.15,0,.07-.01.15-.03.22-1.1,5.12-.26,11.1,1.42,15.88,1.29,4.15,4.02,11,7.86,13.68.52.37,1.23.35,1.74-.04,19.15-14.61,31.33-47.95,29.55-71.85-.07-1-1.11-1.64-2.04-1.26-4.65,1.87-9.48,4.11-13.97,6.02-1.47.65-3.19,1.33-4.64,2.01-2.61,1.28-2.42.43-4.85,1.93-.03.02-.06.04-.09.05-4.87,2.56-10.7,5.04-15.66,7.27-4.72,1.93-9.99,3.99-15.01,5.01-4.5.85-6.28-4.72-3.02-7.23.05-.04.1-.07.15-.1,5.17-3.19,11.83-5.83,17.38-7.91,16.99-5.8,33.82-12.32,50.53-18.91,6.2-2.59,13.23-5.15,19.19-8.31.05-.03.09-.05.14-.07,3.47-1.33,11.59-6.77,14.63-4.33,1.14.6,2.36,1.83,2.11,3.19-.04.23-.02.47.05.7.34,1.06-.92,2.39-1.53,2.98-1.47,1.42-.75.23-3.81,1.77-.05.02-.1.05-.15.06-1.6.58-3.1,1.37-4.79,1.58-.23.03-.44.1-.63.22-2.24,1.4-5.49,1.6-7.92,2.66-5.8,2.16-11.61,4.67-17.38,6.88-.73.28-1.14,1.05-.96,1.8l.83,3.69c.55,2.45-.06,2.37.39,4.43.02.08.03.17.03.26.08,2.05.37,3.87.16,5.9,0,.03,0,.07,0,.1,0,1.36-.33,2.88-.43,4.29,0,.05,0,.09,0,.14.02,1.99,0,1.84-.32,3.62-.91,4.2-1.5,8.59-3.11,12.66-.02.04-.03.09-.04.13-2.49,9.22-6.9,18.66-11.92,26.82-.02.03-.03.05-.05.08-1.45,2.04-3,4.63-4.43,6.62-2.73,3.46-5.93,7.67-9.26,10.59-2.1,1.87-5.89,5.39-8.54,5.8-.06,0-.12.02-.19.02-1.66.07-3.77-.5-4.66-1.99-.2-.34-.54-.57-.92-.67-2.28-.57-3.77-1.9-4.54-2.89-.06-.08-.13-.16-.21-.23-2.94-2.46-4.87-5.97-6.84-9.2-.02-.04-.05-.08-.07-.12-2.07-4.23-3.89-8.83-4.21-13.57,0-.04,0-.08-.01-.11-.88-5.15-.4-10.55.72-15.59,1.12-4.2,5.12-9.88,9.3-10.93.21-.05.4-.14.57-.27,2.14-1.64,4.45-3.61,7.2-3.94.2-.02.4-.08.58-.18,4.09-2.3,8.82-3.46,13.2-5.2.08-.03.16-.05.24-.07.77-.16,5.54-1.24,6.24-1.37.03,0,.06-.01.1-.02,1.99-.57,4.17-.76,5.82.71.14.12.24.27.32.43.52,1.09.75,3.08-.12,3.9-1.82,1.95-4.96,3.57-7.43,4.55-2.62,1.13-5.05,2.49-7.74,3.66"/>
    <path class="cls-2" d="M84.41,99.57c4.73-3.33,9.29-7,13.64-10.8.03-.03.07-.06.1-.1,2.85-3.02,6.88-6.31,9.35-9.53,5.35-6.24,10.94-13.26,12.96-21.36.02-.09.04-.19.04-.29.03-.49.1-1.71.11-2.21,0-.1,0-.2-.03-.29-.92-4.94-7.48-4.76-11.3-4.45-1.34.14-3.07.26-4.4.39-.06,0-.12.02-.18.03-3.5.77-7.66,1.76-11.05,2.9-3.36,1.16-7.51,2.84-10.69,3.88-.03,0-.06.02-.08.03-3.67,1.45-2.94,1.37-6.1,3.28-.65.39-1.35.16-1.99.23-.09.01-.18.04-.27.06-2.3.74-2.56.35-3.4-1.49-.12-.27-.32-.49-.56-.65-1.71-1.13-.76-3.21.34-4.67.59-1.16,1.93-1.37,2.89-2.13.05-.05.11-.08.17-.12,1.06-.6,2.98-1.79,3.96-2.4,5.67-3.79,11.61-7.78,16.37-12.76.97-1.01.12-2.7-1.26-2.51-3.05.41-6.42,1.32-8.9,2-3.12.69-6.44,2.61-9.62,1.52-.36-.12-.65-.39-.82-.72-.69-1.35-.89-1.32-.26-2.98.82-2.15.51-1.34,2.79-2.89.88-.59,1.92-.91,2.91-1.3,4.34-1.79,8.86-3.28,13.5-4.08,5.9-1.38,14.19.21,13.33,7.88-.34,2.27-1.57,4.25-3.01,6.06-.84,1.06.04,2.6,1.38,2.41,2.56-.37,5.18-.62,7.68-.37.03,0,.06,0,.09,0,4.39.05,8.87,1.46,12.4,4.07.09.07.17.14.25.23,4.09,4.59,4.98,11.01,3.28,16.73-2.07,7.43-7.19,13.79-12.04,19.61-7.02,7.91-15.82,15.24-24.31,21.52-11.79,8.7-24.56,16.03-38.29,20.83-2.37.87-6.21,2.12-8.66,2.72-2.29.55-5.14,1.83-7.08-.07-1.12-.79-2.15-1.98-1.6-3.53.5-1.39-.37-2.31,2.4-3.31.04-.01.08-.03.12-.04,3.9-1.12,6.82-1.65,10.29-2.81,12.67-4.27,24.42-11.21,35.56-18.52"/>
    <path class="cls-1" d="M96.4,86.9c.03-1.97,1.13-3.83,3.58-4.32,1.52-.3,2.4-.71,3.39-1.95.46-.58.99-.97,1.54-1.22-.03-.16-.06-.31-.06-.48,0-1.28.77-2.3,2.31-3.04,1.54-.74,3.73-1.12,6.55-1.12,5.45,0,8.68,1.62,9.71,4.86l11.79-1.16c-.98-3.8-3.11-6.71-6.4-8.71-3.29-2-8.32-3.01-15.11-3.01s-11.63,1.08-15.3,3.24c-3.68,2.16-5.51,5.16-5.51,9.02,0,3.37,1.18,5.99,3.5,7.9"/>
    <path class="cls-1" d="M134.41,90.33c-1.11-1.59-2.96-2.89-5.55-3.89-1.84-.71-4.18-1.33-7-1.87.41,1.32.27,2.81-.33,4.18-.78,1.77-2.05,3.19-3.59,4.14,1.92.37,3.32.77,4.18,1.22,1.18.62,1.77,1.52,1.77,2.7,0,1.44-.8,2.53-2.39,3.28-1.59.75-3.9,1.12-6.94,1.12s-5.38-.41-7.21-1.23c-1.82-.82-3.02-2.18-3.58-4.09h-12.02c.41,3.39,1.66,6.08,3.74,8.05,2.08,1.98,4.78,3.39,8.09,4.24,3.31.85,7.03,1.27,11.14,1.27,14.23,0,21.35-4.34,21.35-13.03,0-2.47-.55-4.5-1.66-6.09"/>
    <path class="cls-1" d="M144.63,94.26v-16.96h-7.79v-9.33h7.79v-10.71h12.8v10.71h12.87v9.33h-12.87v16.42c0,2,.49,3.44,1.46,4.32.98.87,2.49,1.31,4.55,1.31s4.16-.36,6.47-1.08l1.7,8.94c-1.9.62-3.77,1.07-5.59,1.35-1.82.28-3.87.42-6.13.42-5.39,0-9.29-1.17-11.68-3.51-2.39-2.34-3.58-6.08-3.58-11.22"/>
    <path class="cls-1" d="M174.69,94.26v-26.28h12.8v23.89c0,5.14,2.6,7.71,7.79,7.71,3.03,0,5.75-1.08,8.17-3.24,2-1.75,3.01-3.88,3.01-6.4v-21.97h12.87v40.24h-12.56v-6.24c-2.11,2.36-4.47,4.2-7.09,5.51-2.62,1.31-5.65,1.97-9.1,1.97-4.98,0-8.88-1.32-11.68-3.97-2.8-2.65-4.2-6.39-4.2-11.22"/>
    <path class="cls-1" d="M224.64,88.56c0-4.27.85-8.03,2.54-11.29,1.7-3.26,4.11-5.83,7.25-7.71,3.13-1.88,6.86-2.81,11.18-2.81,6.42,0,11.36,2.11,14.8,6.32v-19.89h12.8v55.04h-12.56v-5.94c-1.85,2.36-4.16,4.15-6.94,5.36-2.77,1.21-5.88,1.81-9.33,1.81-3.96,0-7.41-.87-10.37-2.62-2.96-1.75-5.26-4.19-6.9-7.32-1.65-3.13-2.47-6.78-2.47-10.95M237.74,88.25c0,3.7.95,6.55,2.85,8.56,1.9,2,4.65,3.01,8.25,3.01,2.26,0,4.26-.46,6.01-1.39,1.75-.92,3.12-2.2,4.12-3.82,1-1.62,1.5-3.43,1.5-5.43v-1.93c0-3.24-1.01-5.86-3.05-7.86-2.03-2-4.79-3.01-8.29-3.01-3.75,0-6.59,1.02-8.52,3.04-1.93,2.03-2.89,4.97-2.89,8.83"/>
    <path class="cls-1" d="M280.52,52.64h13.03v9.25h-13.03v-9.25ZM280.6,67.98h12.8v40.24h-12.8v-40.24Z"/>
    <path class="cls-1" d="M298.79,88.25c0-4.47,1-8.31,3.01-11.52,2-3.21,4.87-5.68,8.6-7.4,3.73-1.72,8.11-2.58,13.14-2.58,7.66,0,13.6,1.85,17.84,5.55,4.24,3.7,6.36,8.92,6.36,15.65,0,4.42-1,8.23-3.01,11.45-2,3.21-4.86,5.69-8.56,7.44-3.7,1.75-8.09,2.62-13.18,2.62-7.61,0-13.54-1.86-17.81-5.59-4.27-3.73-6.4-8.93-6.4-15.61M311.89,88.1c0,3.75.98,6.64,2.93,8.67,1.95,2.03,4.75,3.04,8.4,3.04s6.54-1.01,8.52-3.04c1.98-2.03,2.97-4.92,2.97-8.67s-.99-6.72-2.97-8.75c-1.98-2.03-4.79-3.05-8.44-3.05s-6.46,1.02-8.44,3.05c-1.98,2.03-2.97,4.95-2.97,8.75"/>
    <path class="cls-1" d="M382.58,96.81c0-1.18-.59-2.08-1.77-2.7-1.18-.62-3.37-1.16-6.55-1.62l-4.93-.77c-6.37-.97-10.92-2.43-13.64-4.35-2.73-1.93-4.09-4.71-4.09-8.36,0-3.85,1.84-6.86,5.51-9.02,3.67-2.16,8.78-3.24,15.3-3.24s11.82,1,15.11,3.01c3.29,2,5.42,4.91,6.4,8.71l-11.79,1.16c-1.03-3.24-4.27-4.86-9.71-4.86-2.83,0-5.01.37-6.55,1.12-1.54.75-2.31,1.76-2.31,3.04,0,1.13.56,2,1.7,2.62,1.13.62,3.21,1.16,6.24,1.62l5.32.77c4.57.67,8.16,1.5,10.75,2.51,2.59,1,4.44,2.3,5.55,3.89,1.11,1.59,1.66,3.62,1.66,6.09,0,8.69-7.12,13.03-21.35,13.03-4.11,0-7.82-.42-11.14-1.27-3.31-.85-6.01-2.26-8.09-4.24-2.08-1.98-3.33-4.66-3.74-8.05h12.03c.56,1.9,1.76,3.26,3.58,4.08,1.82.82,4.23,1.23,7.21,1.23s5.35-.37,6.94-1.12c1.59-.74,2.39-1.84,2.39-3.28"/>
  </g>
</svg>